<svg width="38" height="38" viewBox="0 0 38 38" fill="none" xmlns="http://www.w3.org/2000/svg">
<rect width="38" height="38" rx="5" fill="#EEEEEE"/>
<path d="M11.5625 14.8906H26.1875C26.4688 14.8906 26.75 14.6445 26.75 14.3281V12.9219C26.75 12.6406 26.4688 12.3594 26.1875 12.3594H11.5625C11.2461 12.3594 11 12.6406 11 12.9219V14.3281C11 14.6445 11.2461 14.8906 11.5625 14.8906ZM11.5625 20.5156H26.1875C26.4688 20.5156 26.75 20.2695 26.75 19.9531V18.5469C26.75 18.2656 26.4688 17.9844 26.1875 17.9844H11.5625C11.2461 17.9844 11 18.2656 11 18.5469V19.9531C11 20.2695 11.2461 20.5156 11.5625 20.5156ZM11.5625 26.1406H26.1875C26.4688 26.1406 26.75 25.8945 26.75 25.5781V24.1719C26.75 23.8906 26.4688 23.6094 26.1875 23.6094H11.5625C11.2461 23.6094 11 23.8906 11 24.1719V25.5781C11 25.8945 11.2461 26.1406 11.5625 26.1406Z" fill="#333333"/>
</svg>
