<svg width="21" height="34" viewBox="0 0 21 34" fill="none" xmlns="http://www.w3.org/2000/svg">
<path d="M19.9358 2.01562C20.159 2.23884 20.2706 2.49553 20.2706 2.78571C20.2706 3.07589 20.159 3.33259 19.9358 3.5558L6.77734 16.7143L19.9358 29.8728C20.159 30.096 20.2706 30.3527 20.2706 30.6429C20.2706 30.933 20.159 31.1897 19.9358 31.4129L18.2617 33.0871C18.0385 33.3103 17.7818 33.4219 17.4916 33.4219C17.2015 33.4219 16.9448 33.3103 16.7215 33.0871L1.11886 17.4844C0.895647 17.2612 0.78404 17.0045 0.78404 16.7143C0.78404 16.4241 0.895647 16.1674 1.11886 15.9442L16.7215 0.341515C16.9448 0.118301 17.2015 0.00669336 17.4916 0.00669336C17.7818 0.00669336 18.0385 0.118301 18.2617 0.341515L19.9358 2.01562Z" fill="#471F6F"/>
</svg>
