<svg width="19" height="20" viewBox="0 0 19 20" fill="none" xmlns="http://www.w3.org/2000/svg">
<path d="M16.6816 0.907715H2.09894C1.26614 0.907715 0.599609 1.61111 0.599609 2.48997V17.8989C0.599609 18.7778 1.26614 19.4812 2.09894 19.4812H16.7003C17.5331 19.4812 18.1996 18.7778 18.1996 17.8989V2.48997C18.1808 1.61111 17.5143 0.907715 16.6815 0.907715H16.6816ZM12.3144 10.6927L7.83598 13.8367C7.44705 14.1098 6.92946 13.8169 6.92946 13.3286L6.92873 7.04008C6.92873 6.55183 7.44707 6.25887 7.83526 6.53198L12.3325 9.67674C12.6658 9.9117 12.6658 10.4579 12.3145 10.6929L12.3144 10.6927Z" fill="#522D6E"/>
</svg>
