<svg width="21" height="34" viewBox="0 0 21 34" fill="none" xmlns="http://www.w3.org/2000/svg">
<path d="M19.8644 15.9442C20.0876 16.1674 20.1992 16.4241 20.1992 16.7143C20.1992 17.0045 20.0876 17.2612 19.8644 17.4844L4.26172 33.0871C4.0385 33.3103 3.78181 33.4219 3.49163 33.4219C3.20145 33.4219 2.94475 33.3103 2.72154 33.0871L1.04743 31.4129C0.824219 31.1897 0.712612 30.933 0.712612 30.6429C0.712612 30.3527 0.824219 30.096 1.04743 29.8728L14.2059 16.7143L1.04743 3.5558C0.824219 3.33259 0.712612 3.07589 0.712612 2.78571C0.712612 2.49553 0.824219 2.23884 1.04743 2.01562L2.72154 0.341515C2.94475 0.118301 3.20145 0.00669336 3.49163 0.00669336C3.78181 0.00669336 4.0385 0.118301 4.26172 0.341515L19.8644 15.9442Z" fill="#471F6F"/>
</svg>
