<svg width="38" height="38" viewBox="0 0 38 38" fill="none" xmlns="http://www.w3.org/2000/svg">
<rect width="38" height="38" rx="5" fill="#EEEEEE"/>
<path d="M27.7539 25.8242L24.2383 22.3086C24.0625 22.168 23.8516 22.0625 23.6406 22.0625H23.0781C24.0273 20.832 24.625 19.2852 24.625 17.5625C24.625 13.5547 21.3203 10.25 17.3125 10.25C13.2695 10.25 10 13.5547 10 17.5625C10 21.6055 13.2695 24.875 17.3125 24.875C19 24.875 20.5469 24.3125 21.8125 23.3281V23.9258C21.8125 24.1367 21.8828 24.3477 22.0586 24.5234L25.5391 28.0039C25.8906 28.3555 26.418 28.3555 26.7344 28.0039L27.7188 27.0195C28.0703 26.7031 28.0703 26.1758 27.7539 25.8242ZM17.3125 22.0625C14.8164 22.0625 12.8125 20.0586 12.8125 17.5625C12.8125 15.1016 14.8164 13.0625 17.3125 13.0625C19.7734 13.0625 21.8125 15.1016 21.8125 17.5625C21.8125 20.0586 19.7734 22.0625 17.3125 22.0625Z" fill="#333333"/>
</svg>
