<svg width="251" height="1875" viewBox="0 0 251 1875" fill="none" xmlns="http://www.w3.org/2000/svg">
<path fill-rule="evenodd" clip-rule="evenodd" d="M52.2118 4.85148C47.2968 6.89028 41.2207 9.76698 38.7104 11.2392C36.2 12.7115 31.5192 13.9471 28.3104 13.9831C24.638 14.0242 21.7178 15.49 20.4313 17.9415C18.6588 21.3161 17.6829 21.4841 13.0883 19.1981C7.09847 16.2201 5.01151 17.1679 5.07506 22.8351C5.09913 24.9822 3.30888 29.0979 1.0967 31.9799C-1.11548 34.862 -2.90171 39.3359 -2.87273 41.9208C-2.82351 46.31 -2.00893 46.6038 9.32311 46.3308C19.4965 46.084 22.0775 45.2391 25.2373 41.1235L29.0101 36.2115L37.0429 41.5882C46.0624 47.6283 53.3361 48.1991 64.0741 43.7155C72.7129 40.1068 73.771 36.2094 68.0465 29.0885C64.6942 24.9199 63.8278 21.7518 63.7334 13.3315C63.6684 7.5338 63.0593 2.41887 62.3817 1.96648C61.7041 1.51188 57.1268 2.81047 52.2118 4.85148ZM56.9035 59.3293C53.3348 61.3286 46.7477 63.4702 42.2657 64.091C37.7837 64.7096 32.8768 66.7439 31.3633 68.6097C29.4473 70.9731 26.9142 71.592 23.0285 70.6514C17.9691 69.4255 17.2677 69.9111 15.5272 75.8418C14.4706 79.4407 12.2231 84.1188 10.5345 86.2386C7.58389 89.9383 6.54401 96.1907 8.45612 98.7213C8.95815 99.3836 11.7099 99.2068 14.573 98.3255C17.4361 97.4442 22.3248 97.4225 25.4374 98.2744C30.0958 99.5535 31.9196 98.8652 35.7593 94.3881L40.4224 88.9509L46.177 93.6587C56.2579 101.909 82.642 98.2986 82.5342 88.6844C82.522 87.5898 80.5828 83.6641 78.2266 79.962C74.9316 74.7887 74.0421 71.3024 74.385 64.9074C74.8166 56.813 74.6735 56.5735 69.1105 56.1406C65.9655 55.8972 60.4723 57.3321 56.9035 59.3293ZM79.8945 111.087C78.734 112.697 71.7541 113.861 61.7001 114.127C46.2233 114.532 45.1481 114.869 40.7459 120.717C36.63 126.186 35.6258 126.593 31.859 124.326C26.6641 121.2 22.5228 123.089 22.5841 128.555C22.6092 130.795 20.393 135.8 17.6615 139.676C10.2606 150.177 11.9175 152.218 27.8362 152.214C40.1605 152.211 41.8947 151.689 44.7997 147.121C47.7816 142.43 48.3611 142.28 52.1532 145.205C61.4515 152.374 64.7088 153.315 75.8993 152.066C82.1761 151.366 88.5884 150.093 90.1507 149.237C93.746 147.271 93.7808 137.423 90.2004 135.612C87.9874 134.494 87.6759 132.047 88.3817 121.329C89.1993 108.937 89.0774 108.395 85.5062 108.435C83.4546 108.458 80.9297 109.652 79.8945 111.087ZM86.6774 167.026C83.5539 168.699 75.0516 170.212 67.7846 170.387C57.1086 170.641 53.8703 171.544 50.9212 175.089C47.2876 179.458 47.2468 179.456 40.964 174.67L34.6549 169.862L29.8265 176.279C27.1711 179.807 21.1317 185.373 16.4069 188.65C11.6836 191.925 7.82804 195.566 7.84119 196.738C7.85433 197.91 12.2783 199.391 17.6722 200.029C23.0662 200.665 29.6047 202.357 32.2032 203.785C36.3932 206.093 37.5255 205.751 42.262 200.747C48.9101 193.719 50.2061 193.707 54.758 200.629C62.1263 211.829 86.4217 215.705 98.9678 207.681C104.055 204.426 104.532 199.518 100.705 189.817C99.0301 185.576 98.4376 180.775 99.0681 176.586C100.084 169.834 97.649 163.437 94.1957 163.792C93.1832 163.896 89.8009 165.352 86.6774 167.026ZM32.6209 222.989C29.9614 226.011 25.3475 229.137 22.3692 229.938C13.7372 232.255 1.77316 238.762 1.9197 241.058C1.99472 242.216 4.21804 243.967 6.8604 244.948C9.50439 245.929 15.234 249.138 19.5944 252.079L27.5207 257.424L33.0421 252.693C39.5806 247.096 44.405 248.331 45.9144 255.994C47.7561 265.355 58.6812 271.148 74.2902 271.044C81.65 270.994 88.4364 269.894 89.3736 268.599C90.3091 267.304 92.0489 261.313 93.2399 255.287C94.4293 249.261 96.4725 240.337 97.7775 235.457C100.927 223.683 99.1888 221.71 88.9203 225.405C81.8237 227.96 79.33 227.864 70.3802 224.695C60.8436 221.319 59.6503 221.315 55.0109 224.644C48.2292 229.511 46.7521 229.237 44.8613 222.781C42.8312 215.849 38.8458 215.916 32.6209 222.989ZM19.6006 276.365C17.5692 278.339 8.89952 282.39 0.333672 285.37C-20.4256 292.595 -28.0776 302.106 -12.9916 301.937C-8.89979 301.891 -4.46598 303.812 -0.557885 307.326C6.75037 313.894 8.24829 313.988 16.6051 308.383L23.0956 304.029L26.3442 311.038C28.1324 314.893 29.6039 318.744 29.6168 319.6C29.6296 320.456 33.0617 323.153 37.2434 325.596C43.0305 328.977 48.2851 329.999 59.2352 329.876C72.2549 329.73 73.8622 329.243 76.1104 324.771C77.4772 322.053 78.5771 318.089 78.5533 315.964C78.5294 313.837 80.7537 307.666 83.4941 302.248C86.2361 296.833 87.9681 291.309 87.341 289.978C86.6771 288.563 81.1148 287.613 73.9774 287.693C65.8216 287.784 60.0089 286.638 56.5167 284.249C50.5158 280.145 43.0714 279.926 39.7387 283.758C36.6203 287.345 32.7709 284.986 30.8087 278.283C28.9331 271.877 24.931 271.193 19.6006 276.365ZM-0.249043 330.503C-2.83123 334.015 -9.6171 338.95 -15.631 341.687C-21.5491 344.383 -28.7718 348.791 -31.6815 351.487C-39.9937 359.183 -40.7481 372.259 -32.716 369.429C-28.0138 367.771 -22.9886 371.049 -15.2625 380.817C-10.2552 387.147 -8.71953 387.99 -5.40765 386.228C-3.2495 385.079 -0.108862 382.02 1.5728 379.429C3.25446 376.839 5.53219 374.708 6.63716 374.695C9.16047 374.667 14.0079 384.213 14.1353 389.461C14.2806 395.431 17.5272 399.932 25.6941 405.486C31.5533 409.47 35.8777 410.523 46.4966 410.552C62.8467 410.594 64.2629 409.072 66.0902 389.478C66.8273 381.559 69.0135 370.825 70.9483 365.626C75.7116 352.817 73.6581 349.618 60.7592 349.762C51.6469 349.865 37.8382 343.849 35.4335 338.732C33.9435 335.56 26.5835 336.6 21.5918 340.686C16.0874 345.192 15.0234 344.194 13.5874 333.177C12.6909 326.305 11.8025 324.815 8.43847 324.543C5.91422 324.342 2.62094 326.599 -0.249043 330.503ZM-17.0032 407.984C-21.4837 413.835 -28.1989 419.11 -37.1729 423.826C-51.0576 431.122 -58.8061 440.028 -58.7102 448.577C-58.6687 452.281 -57.4498 452.815 -49.2564 452.723C-41.2099 452.633 -38.6104 453.723 -31.2796 460.262C-26.5672 464.466 -21.8684 467.897 -20.8401 467.885C-19.8119 467.874 -16.2219 464.848 -12.8631 461.161C-4.44896 451.929 -1.06307 452.4 2.71269 463.329C6.90019 475.456 12.4963 480.148 27.6002 484.198C38.6011 487.148 41.9416 487.213 51.4965 484.655C57.6061 483.021 63.0705 480.627 63.642 479.337C64.212 478.048 64.4405 470.766 64.1478 463.155C63.7931 453.942 64.4583 447.028 66.1392 442.471C67.5285 438.707 68.4076 432.96 68.0919 429.7L67.5194 423.771L52.0139 423.945C38.4018 424.097 35.3854 423.388 27.3068 418.14C16.8126 411.323 14.7829 410.969 11.2376 415.35C9.83843 417.078 6.8711 418.851 4.64137 419.294C1.33504 419.951 0.268068 418.839 -1.14111 413.267C-3.05063 405.727 -6.64514 399.17 -8.8567 399.195C-9.6434 399.204 -13.3094 403.159 -17.0032 407.984ZM-30.1697 491.268C-34.4459 497.574 -41.3923 504.209 -48.7025 508.968C-62.8983 518.212 -68.1004 525.219 -67.2629 533.967C-66.6637 540.232 -66.5964 540.266 -56.6748 539.403C-48.3873 538.682 -45.3257 539.495 -38.6784 544.177C-28.2518 551.522 -26.1618 551.288 -18.7022 541.945C-10.5906 531.788 -7.32141 532.043 -2.14869 543.233C4.08636 556.721 11.3725 560.297 32.2664 560.123C44.3594 560.022 51.4212 558.877 56.4434 556.207L63.5394 552.434L62.3659 543.425C60.7281 530.853 60.5698 518.338 61.9068 507.427C62.9641 498.804 62.7596 498.034 59.0913 496.833C56.9155 496.118 50.7678 496.532 45.4306 497.749C35.7901 499.949 18.1775 497.966 14.5188 494.269C10.3283 490.033 6.89604 490.372 -0.373066 495.739L-8.14242 501.476L-11.9367 495.157C-18.3625 484.45 -20.7501 481.153 -22.0656 481.168C-22.7609 481.175 -26.4072 485.721 -30.1697 491.268ZM-32.6335 573.754C-34.6968 578.417 -38.6611 584.3 -41.442 586.832C-44.2229 589.362 -50.5981 595.115 -55.6095 599.616C-64.7469 607.824 -69.1191 616.785 -67.8469 624.699C-67.1712 628.911 -66.9212 628.932 -51.4853 626.046C-45.4778 624.923 -42.3636 625.614 -37.1158 629.233C-26.9674 636.229 -22.2394 635.269 -15.4956 624.839C-12.3266 619.939 -8.49487 615.915 -6.9786 615.898C-5.46233 615.881 -1.66502 619.56 1.46096 624.074C7.67141 633.041 17.7095 637.468 31.8622 637.484C42.2588 637.494 60.4766 631.301 65.9579 625.894L70.4462 621.465L66.9435 609.994C64.3118 601.377 63.6233 595.586 64.1817 586.718C64.5904 580.225 64.5103 573.51 64.0029 571.793C62.8813 567.993 51.8446 567.672 49.1828 571.364C45.8524 575.983 23.5716 576.795 15.2387 572.6C6.40684 568.157 0.822176 569.58 -2.75066 577.185C-6.65834 585.5 -11.862 584.36 -17.3111 573.996C-23.3224 562.562 -27.6473 562.493 -32.6335 573.754ZM62.7293 641.055C60.5582 641.634 56.9405 643.778 54.6928 645.82C51.4319 648.78 46.3513 649.591 29.5455 649.826C8.6693 650.12 8.45119 650.175 4.72988 656.186C-0.211577 664.165 -5.92879 664.103 -11.0798 656.016C-13.2947 652.538 -16.7098 649.024 -18.668 648.206C-21.5495 647.006 -22.76 648.088 -24.9969 653.868C-29.3753 665.182 -36.1502 675.17 -43.5199 681.179C-52.2822 688.325 -57.2811 695.843 -59.0061 704.471C-61.1469 715.174 -57.852 717.431 -46.6193 712.957C-38.3507 709.664 -36.4557 709.65 -24.3623 712.792L-11.1425 716.224L-6.50553 708.604C-3.95546 704.411 -1.15131 699.731 -0.275584 698.2C2.54382 693.279 6.89372 695.141 14.1535 704.376L21.2477 713.397L41.9121 712.124C56.8281 711.202 64.1545 709.78 68.2467 707.005C84.4601 696.014 85.1485 694.082 78.613 677.961C75.7439 670.885 74.293 663.915 74.2136 656.833C74.1048 647.128 70.975 638.782 67.7841 639.687C67.1755 639.859 64.902 640.475 62.7293 641.055ZM70.0195 719.531C60.4822 725.985 57.8738 726.72 42.3571 727.347C32.9345 727.727 24.2889 728.113 23.1456 728.204C22.0024 728.294 20.4129 730.804 19.6137 733.779C18.3994 738.304 13.6633 743.932 11.0486 743.961C10.6683 743.965 7.09251 740.531 3.10329 736.332C-6.80292 725.901 -8.99902 726.432 -13.7019 740.402C-16.3622 748.304 -20.2424 754.843 -25.6791 760.587C-39.2078 774.881 -43.5434 782.155 -43.451 790.396C-43.3455 799.805 -40.1234 801.529 -32.0737 796.485C-25.88 792.605 -16.3024 792.509 -0.514056 796.162C6.68374 797.828 9.88938 795.035 13.0603 784.338C15.7781 775.163 21.6732 772.748 27.6388 778.362C39.7118 789.727 40.432 790.048 53.4339 789.916C73.5814 789.707 96.6868 779.607 101.471 768.919C103.047 765.396 102.507 762.967 98.1766 754.083C95.3296 748.242 92.0425 737.655 90.8725 730.56C87.3327 709.082 86.2834 708.528 70.0195 719.531ZM93.0241 792.01C79.2644 801.858 70.1864 805.164 56.2909 805.384C42.6534 805.603 42.1667 805.874 36.9983 816.177C32.756 824.637 30.6165 824.389 19.6712 814.169C13.8166 808.702 12.0984 808.033 9.2832 810.124C7.3292 811.574 5.50291 815.823 4.94503 820.226C3.97148 827.882 -1.71699 837.371 -14.6794 852.956C-24.7894 865.113 -28.4173 881.205 -21.803 884.55C-20.5209 885.197 -16.5508 883.615 -12.9788 881.032C-8.59552 877.862 -3.97857 876.464 1.22835 876.728C5.47001 876.944 13.2954 877.219 18.6182 877.34L28.2957 877.561L32.4799 867.563C37.8994 854.607 42.9327 853.365 51.897 862.772C58.0383 869.214 58.9309 869.478 74.0414 869.308C90.8493 869.12 104.063 864.633 116.271 854.967C125.419 847.726 126.7 843.843 122.824 835.09C121.071 831.126 119.106 827.393 118.459 826.792C116.135 824.634 111.826 808.494 111.749 801.657C111.664 794.077 107.65 784.832 104.532 785.037C103.462 785.109 98.2838 788.245 93.0241 792.01ZM117.827 868.795C114.944 870.951 111.669 873.714 110.55 874.936C106.493 879.367 90.3569 884.462 77.7985 885.277C65.3543 886.085 64.8008 886.356 59.9415 894.098C53.1193 904.966 50.9282 905.506 43.4921 898.161C35.0293 889.802 28.3148 889.749 26.901 898.033C25.1779 908.132 19.2048 919.462 10.1006 929.901C-2.11557 943.91 -4.02817 947.596 -3.98417 957.052C-3.93347 967.543 -1.26023 969.094 6.89285 963.367C16.0905 956.904 21.7177 955.78 33.8822 957.974C48.5786 960.622 50.922 959.395 55.5339 946.632C60.4118 933.127 65.3773 932.096 73.7755 942.843L79.345 949.967L97.0729 949.576C109.554 949.301 117.117 948.018 122.628 945.236C140.293 936.318 149.081 928.287 149.001 921.134C148.976 918.903 146.421 912.321 143.323 906.511C140.226 900.701 136.804 890.722 135.72 884.336C132.143 863.274 128.937 860.49 117.827 868.795ZM140.347 950.073C127.268 960.366 118.643 963.844 101.407 965.775L85.1645 967.594L81.4075 975.376C75.8878 986.814 73.0813 987.352 64.7101 978.578C54.9052 968.3 51.9079 969.44 45.9169 985.726C42.2894 995.59 38.0498 1002.39 29.5982 1011.92C16.4912 1026.7 12.4264 1037.46 17.2707 1044.54C19.911 1048.39 20.2892 1048.35 28.0175 1043.17C36.5705 1037.44 47.1042 1036.29 60.4485 1039.62C68.1585 1041.54 75.2202 1037.77 75.1528 1031.75C75.1051 1027.5 83.0257 1015.16 85.8199 1015.13C87.1404 1015.12 91.705 1018.66 95.9652 1023.01L103.71 1030.92L123.283 1029.58C142.502 1028.27 144.553 1027.6 161.501 1016.92C168.308 1012.63 174.432 1005.51 174.392 1001.92C174.376 1000.49 172.03 995.075 169.177 989.881C162.488 977.702 159.317 967.66 159.212 958.331C159.126 950.647 155.049 943.572 150.757 943.658C149.482 943.686 144.797 946.571 140.347 950.073ZM159.284 1034.46C146.072 1042.84 143.223 1043.81 128.386 1044.91C110.313 1046.25 105.942 1048.22 103.38 1056.12C102.43 1059.06 99.8113 1062.63 97.5632 1064.05C93.9811 1066.32 92.5761 1065.78 86.2056 1059.72C75.1856 1049.24 72.0256 1050.28 66.8666 1066.09C63.3632 1076.82 60.3953 1081.61 50.9406 1091.79C37.8859 1105.84 32.8568 1115.03 34.5208 1121.79C35.8908 1127.36 37.4447 1127.35 49.2273 1121.69C60.1332 1116.46 65.0001 1116.1 77.9182 1119.56C86.1193 1121.75 87.7955 1121.58 91.5411 1118.18C93.8907 1116.05 96.4952 1111.76 97.3304 1108.65C99.2812 1101.39 105.235 1094.71 108.468 1096.15C109.851 1096.76 113.584 1099.93 116.763 1103.18C126.183 1112.82 129.173 1114.17 140.853 1113.99C159.587 1113.72 185.613 1104.31 194.353 1094.65C200.243 1088.15 199.733 1080.57 192.57 1068.19C188.567 1061.27 186.006 1053.83 184.711 1045.38C181.165 1022.21 179.619 1021.55 159.284 1034.46ZM187.929 1115.2C174.416 1124.57 159.402 1129.3 142.573 1129.49L127.241 1129.66L122.971 1137.45C117.459 1147.51 111.561 1147.93 104.919 1138.76C97.4776 1128.49 92.0529 1129.76 86.1424 1143.17C80.8367 1155.21 74.8885 1162.21 63.0876 1170.31C55.9989 1175.17 45.8528 1188.04 45.9595 1192.02C45.9839 1192.89 46.6869 1195.03 47.5243 1196.77C48.7995 1199.42 50.4033 1199.49 57.423 1197.21C69.021 1193.44 84.0735 1193.62 91.3301 1197.63C99.4654 1202.11 103.898 1200.13 112.175 1188.32C115.993 1182.87 120.611 1178.39 122.437 1178.37C124.264 1178.35 128.557 1181.68 131.977 1185.77C138.971 1194.14 146.077 1197.23 162.728 1199.13C182.152 1201.34 213.061 1190.33 217.102 1179.76C218.556 1175.95 217.935 1172.78 213.582 1161.83C209.771 1152.23 208.01 1144.39 207.263 1133.67C206.152 1117.76 202.971 1108.73 198.669 1109.26C197.204 1109.45 192.371 1112.12 187.929 1115.2ZM202.017 1209.09C191.078 1215.78 189.8 1216.04 166.67 1216.44L142.673 1216.85L138.361 1224.09C132.696 1233.59 127.688 1233.49 119.531 1223.74C112.442 1215.26 107.837 1214.15 104.195 1220.04C102.87 1222.18 99.1832 1228.19 96.0029 1233.39C92.1894 1239.62 85.7294 1245.95 77.0345 1251.99C62.3013 1262.21 56.5875 1268.57 56.6557 1274.66C56.7248 1280.82 60.9181 1281.81 73.7873 1278.73C84.7258 1276.11 86.1559 1276.27 97.6332 1281.39C112.165 1287.87 117.427 1286.51 124.317 1274.49C129.967 1264.64 137.253 1263.81 143.269 1272.34C151.169 1283.54 156.093 1286.54 171.859 1289.76C185.92 1292.64 189.014 1292.59 203.746 1289.24C222.396 1285.01 231.09 1280.11 232.297 1273.16C232.774 1270.41 231.473 1263.69 229.285 1257.6C226.5 1249.85 225.197 1241.67 224.585 1228.09C223.708 1208.68 221.294 1201.34 215.966 1201.89C214.536 1202.03 208.258 1205.28 202.017 1209.09ZM216.964 1304.7C205.587 1310.02 203.18 1310.34 180.406 1309.67L156.026 1308.94L151.208 1316.5C148.558 1320.66 144.954 1324.08 143.199 1324.1C141.445 1324.11 136.778 1320.19 132.827 1315.37C128.877 1310.54 124.249 1306.62 122.544 1306.64C120.817 1306.65 116.238 1311.88 112.216 1318.42C107.297 1326.42 102.214 1331.83 96.293 1335.39C76.4774 1347.3 69.976 1352.85 68.5117 1359.1C66.471 1367.82 68.9102 1369.02 85.3403 1367.46C97.0839 1366.33 100.689 1366.85 107.988 1370.69C120.633 1377.34 126.739 1376.64 134.007 1367.69C144.199 1355.14 148.517 1355.3 156.939 1368.53C162.546 1377.33 167.216 1379.95 185.258 1384.41C198.464 1387.67 202.598 1387.86 212.205 1385.62C245.511 1377.86 247.097 1375.76 239.497 1349.55C237.284 1341.92 236.819 1335.95 237.481 1323.68C238.248 1309.48 237.969 1307.22 234.965 1303.25C230.864 1297.82 231.845 1297.74 216.964 1304.7ZM226.968 1396.21C224.287 1397.29 218.071 1399.85 213.156 1401.88C206.051 1404.82 199.637 1405.4 181.866 1404.68C160.784 1403.83 159.252 1404.05 154.976 1408.6C152.48 1411.25 149.867 1414.71 149.166 1416.28C146.754 1421.69 140.637 1419.33 134.083 1410.44C126.138 1399.68 120.271 1398.87 115.431 1407.89C107.485 1422.68 104.986 1425.11 82.6052 1439.73C76.5981 1443.66 70.2616 1449.66 68.5141 1453.08C65.3818 1459.2 65.3816 1459.34 68.5254 1463.11C71.3514 1466.49 72.6553 1466.61 80.0367 1464.11C90.0411 1460.74 98.1009 1462.12 110.457 1469.34C115.543 1472.31 121.32 1474.72 123.297 1474.7C125.285 1474.68 130.42 1470.17 134.78 1464.62C139.119 1459.1 144.243 1454.56 146.169 1454.54C148.222 1454.52 152.493 1458.55 156.507 1464.31C165.983 1477.91 170.642 1480.5 190.419 1483.2C217.068 1486.84 243.445 1479.66 245.525 1468.19C245.972 1465.72 244.842 1457.95 243.01 1450.92C239.428 1437.18 238.806 1426.21 240.874 1413.28C243.291 1398.18 238.044 1391.74 226.968 1396.21ZM107.791 1499.75C99.8875 1510.24 87.3615 1519.33 80.7203 1519.41C77.2438 1519.44 65.1787 1528.01 62.2324 1532.53C60.6389 1534.97 59.6022 1539.18 59.9297 1541.89C60.4929 1546.55 61.3349 1546.82 76.0327 1546.97C90.1478 1547.12 92.4142 1547.76 101.236 1554.11C113.962 1563.27 117.782 1562.96 127.308 1552.05C131.6 1547.14 135.812 1543.11 136.672 1543.1C140.222 1543.06 144.894 1548.14 148.8 1556.29C153.846 1566.8 162.411 1572.91 179.65 1578.27C201.441 1585.06 229.394 1582.29 235.622 1572.74C238.233 1568.73 238.295 1566.88 236.306 1552.19C234.636 1539.86 234.537 1533.75 235.886 1526.3C236.858 1520.93 237.965 1512.35 238.345 1507.23C238.99 1498.55 238.732 1497.82 234.525 1496.44C232.044 1495.63 225.553 1496.31 220.1 1497.95C202.553 1503.25 189.31 1503.46 173.425 1498.7C157.423 1493.9 155.704 1494.22 147.406 1503.56C144.322 1507.04 141.141 1509.88 140.337 1509.89C139.53 1509.9 135.259 1504.97 130.841 1498.94C126.425 1492.91 121.417 1487.99 119.715 1488.01C118.012 1488.03 112.647 1493.31 107.791 1499.75ZM113.093 1576.59C111.308 1577.52 107.817 1580.91 105.335 1584.12C98.7675 1592.62 93.8792 1595.59 76.7973 1601.47C60.9056 1606.94 52.2986 1613.97 52.382 1621.41C52.4412 1626.68 55.6134 1628.05 67.5216 1627.91C76.1737 1627.82 79.1403 1629.04 91.0089 1637.6C98.4819 1642.99 106.141 1647.39 108.031 1647.36C109.92 1647.34 114.474 1644.31 118.151 1640.62C126.684 1632.05 132.848 1631.8 137.147 1639.85C138.922 1643.18 140.86 1647.88 141.452 1650.31C143.954 1660.54 166.47 1673.89 187.361 1677.53C199.032 1679.56 215.244 1678.74 222.916 1675.73C227.274 1674.02 228.89 1665.34 227.782 1649.61C227.18 1641.07 227.443 1632.67 228.403 1629.87C229.321 1627.18 231.347 1619.65 232.905 1613.14C235.686 1601.5 235.678 1601.23 232.465 1598.04C229.848 1595.44 226.913 1595.18 217.79 1596.75C198.018 1600.16 184.576 1598.73 168.841 1591.56C153.554 1584.59 152.532 1584.7 143.677 1594.22C137.158 1601.23 132.553 1599.66 127.45 1588.7C122.383 1577.82 117.929 1574.06 113.093 1576.59ZM94.2133 1669.34C86.6249 1677.24 84.259 1678.36 66.8594 1682.26C46.2602 1686.88 39.5377 1691.36 40.5219 1699.79C41.0764 1704.54 42.5072 1705.2 59.8898 1708.66C63.0653 1709.3 69.9722 1714.14 75.3983 1719.53C88.4757 1732.54 92.4689 1733.46 103.22 1725.91C107.956 1722.59 113.213 1720.2 114.905 1720.61C116.66 1721.04 120.143 1726.66 123.016 1733.71C130.012 1750.86 131.367 1752.62 144.057 1761.08C165.382 1775.28 196.623 1781.35 204.261 1772.78C207.158 1769.53 208.048 1765.44 208.901 1751.47C209.738 1737.74 211.222 1730.77 216.09 1717.66L222.225 1701.15L218.199 1696.75C214.585 1692.8 212.742 1692.52 200.138 1693.99C183.335 1695.97 170.626 1693.07 156.98 1684.16C145.399 1676.61 139.784 1676.36 131.377 1683.04C123.635 1689.19 120.639 1687.52 115.918 1674.41C113.1 1666.58 107.809 1660.64 103.713 1660.68C103.058 1660.69 98.7828 1664.59 94.2133 1669.34ZM76.6316 1751.64C70.0483 1757.61 67.5487 1758.44 52.2375 1759.78C30.8714 1761.65 21.355 1765.9 21.4406 1773.53C21.474 1776.51 22.4242 1779.29 23.5503 1779.71C24.6781 1780.13 30.1021 1782.14 35.6048 1784.18C43.7285 1787.19 47.5609 1790.36 55.9857 1801C67.4025 1815.43 67.933 1815.56 82.5165 1807.71C89.7807 1803.8 90.2523 1803.79 93.3431 1807.49C95.1202 1809.62 97.5508 1816.03 98.7443 1821.73C100.721 1831.17 112.124 1850.77 115.618 1850.73C116.289 1850.73 120.391 1853.44 124.733 1856.78C137.821 1866.82 160.024 1874.06 169.096 1871.25C174.596 1869.54 178.282 1861.42 179.64 1848.01C180.729 1837.23 183.458 1829.41 191.26 1814.74C201.122 1796.18 197.34 1790.11 176.071 1790.35C160.626 1790.52 150.544 1786.19 134.503 1772.51C126.671 1765.83 120.252 1765.08 113.407 1770.03C107.742 1774.13 102.383 1774.41 100.175 1770.74C99.2673 1769.23 97.5939 1764.26 96.4556 1759.71C92.3589 1743.3 87.8559 1741.46 76.6316 1751.64Z" fill="#EEEEEE"/>
</svg>
