<svg width="27" height="18" viewBox="0 0 27 18" fill="none" xmlns="http://www.w3.org/2000/svg">
<g opacity="0.5">
<path d="M25.0711 7.71387H8.35713C7.6472 7.71387 7.07227 8.29001 7.07227 8.99993C7.07227 9.70986 7.6472 10.286 8.35713 10.286H25.0711C25.781 10.286 26.3571 9.70986 26.3571 8.99993C26.3571 8.29001 25.781 7.71387 25.0711 7.71387Z" fill="white"/>
<path d="M8.35713 2.57213H25.0711C25.781 2.57213 26.3571 1.996 26.3571 1.28607C26.3571 0.576138 25.781 0 25.0711 0H8.35713C7.6472 0 7.07227 0.576138 7.07227 1.28607C7.07227 1.996 7.6472 2.57213 8.35713 2.57213Z" fill="white"/>
<path d="M25.0711 15.428H8.35713C7.6472 15.428 7.07227 16.0041 7.07227 16.714C7.07227 17.424 7.6472 18.0001 8.35713 18.0001H25.0711C25.781 18.0001 26.3571 17.424 26.3571 16.714C26.3571 16.0041 25.781 15.428 25.0711 15.428Z" fill="white"/>
<path d="M1.44048 7.81765C1.28258 7.87912 1.13915 7.97072 1.01621 8.08764C0.779973 8.33352 0.647392 8.66017 0.642578 9.00004C0.646194 9.08682 0.654631 9.1724 0.669095 9.25677C0.682353 9.33753 0.708871 9.41587 0.746234 9.48819C0.773956 9.57015 0.812525 9.64849 0.861943 9.71961L1.01622 9.91246C1.13916 10.0294 1.28259 10.121 1.44049 10.1824C1.59477 10.2487 1.76111 10.2837 1.92863 10.2861C2.26853 10.2813 2.59517 10.1475 2.84103 9.91247L2.99531 9.71962C3.04352 9.64851 3.0833 9.57016 3.11102 9.4882C3.14838 9.41588 3.1749 9.33754 3.18695 9.25678C3.20262 9.17241 3.21106 9.08684 3.21467 9.00005C3.20985 8.66015 3.07606 8.33351 2.84104 8.08765C2.47222 7.72244 1.91898 7.61639 1.44047 7.81766L1.44048 7.81765Z" fill="white"/>
<path d="M3.11105 0.797961C3.08333 0.716002 3.04355 0.637656 2.99534 0.566543L2.84106 0.373695C2.46863 0.0132997 1.919 -0.0915481 1.44049 0.103707C1.28259 0.165178 1.13916 0.256779 1.01622 0.373695L0.861943 0.566543C0.812525 0.637656 0.773955 0.716002 0.746234 0.797961C0.708871 0.870281 0.682354 0.948623 0.669095 1.02938C0.654631 1.11375 0.646194 1.19933 0.642578 1.28611C0.647399 1.62602 0.779982 1.95265 1.01621 2.19851C1.13915 2.31543 1.28258 2.40703 1.44048 2.4685C1.59476 2.53479 1.7611 2.56974 1.92861 2.57216C2.26852 2.56734 2.59516 2.43355 2.84102 2.19852C3.07605 1.95264 3.20984 1.626 3.21465 1.28612C3.21103 1.19934 3.2026 1.11376 3.18693 1.02939C3.17488 0.948636 3.14836 0.870293 3.111 0.797973L3.11105 0.797961Z" fill="white"/>
<path d="M2.84076 15.8014C2.46833 15.441 1.9187 15.3362 1.44019 15.5314C1.2823 15.5929 1.13887 15.6845 1.01592 15.8014C0.518129 16.3076 0.518129 17.12 1.01592 17.6263C1.26181 17.8613 1.58845 17.9951 1.92833 17.9999C2.01029 17.9975 2.09104 17.9891 2.1718 17.9734C2.25737 17.9613 2.33934 17.936 2.41648 17.8962C2.49602 17.8709 2.56955 17.8312 2.63584 17.7805C2.71177 17.7287 2.77686 17.6781 2.84195 17.6263H2.84074C3.07578 17.3804 3.20956 17.0537 3.21438 16.7139C3.21196 16.5463 3.17701 16.38 3.11072 16.2257C3.04925 16.0678 2.95765 15.9244 2.84073 15.8014L2.84076 15.8014Z" fill="white"/>
</g>
</svg>
